<?xml version="1.0" encoding="UTF-8" standalone="no"?>
<svg
   width="22000"
   height="22000"
   viewBox="0 0 22000 22000"
   version="1.1"
   xml:space="preserve"
   style="clip-rule:evenodd;fill-rule:evenodd;stroke-linejoin:round;stroke-miterlimit:2"
   id="svg825"
   sodipodi:docname="wrencode-logo-vector.svg"
   inkscape:version="1.1.1 (c3084ef, 2021-09-22)"
   inkscape:export-filename="/Volumes/Employment/Wrencode/media/logo/images/wrencode_logo-4a4139_fill-white_bg_rd-label_btm-border-5000px.png"
   inkscape:export-xdpi="21.82"
   inkscape:export-ydpi="21.82"
   xmlns:inkscape="http://www.inkscape.org/namespaces/inkscape"
   xmlns:sodipodi="http://sodipodi.sourceforge.net/DTD/sodipodi-0.dtd"
   xmlns:xlink="http://www.w3.org/1999/xlink"
   xmlns="http://www.w3.org/2000/svg"
   xmlns:svg="http://www.w3.org/2000/svg"><defs
     id="defs829"><rect
       x="8070.0146"
       y="10225.211"
       width="4322.3667"
       height="2083.3569"
       id="rect32888" /><rect
       x="7830.5483"
       y="9674.4385"
       width="5220.3657"
       height="1772.0507"
       id="rect30792" /><rect
       x="6814.2495"
       y="20138.928"
       width="12543.427"
       height="1215.2802"
       id="rect6485" /><rect
       x="5555.5664"
       y="20355.941"
       width="12022.593"
       height="1302.0859"
       id="rect4895" /><rect
       x="5555.5664"
       y="20355.941"
       width="12022.593"
       height="1302.0859"
       id="rect941" /><rect
       x="6814.2495"
       y="20138.928"
       width="12543.427"
       height="1215.2802"
       id="rect943" /><rect
       x="7830.5483"
       y="9674.4385"
       width="5220.3657"
       height="1772.0507"
       id="rect1445" /><rect
       x="8070.0146"
       y="10225.211"
       width="4322.3667"
       height="2083.3569"
       id="rect1447" /><rect
       x="7830.5483"
       y="9674.4385"
       width="5220.3657"
       height="1772.0507"
       id="rect4031" /><rect
       x="8070.0146"
       y="10225.211"
       width="4322.3667"
       height="2083.3569"
       id="rect4033" /><rect
       x="5555.5664"
       y="20355.941"
       width="12022.593"
       height="1302.0859"
       id="rect4047" /><rect
       x="6814.2495"
       y="20138.928"
       width="12543.427"
       height="1215.2802"
       id="rect4049" /><rect
       x="5555.5664"
       y="20355.941"
       width="12022.593"
       height="1302.0859"
       id="rect7537" /><rect
       x="6814.2495"
       y="20138.928"
       width="12543.427"
       height="1215.2802"
       id="rect7539" /><rect
       x="5555.5664"
       y="20355.941"
       width="12022.593"
       height="1302.0859"
       id="rect1016" /><rect
       x="6814.2495"
       y="20138.928"
       width="12543.427"
       height="1215.2802"
       id="rect1018" /><rect
       x="5555.5664"
       y="20355.941"
       width="12022.593"
       height="1302.0859"
       id="rect1032" /><rect
       x="6814.2495"
       y="20138.928"
       width="12543.427"
       height="1215.2802"
       id="rect1034" /></defs><sodipodi:namedview
     id="namedview827"
     pagecolor="#ffffff"
     bordercolor="#666666"
     borderopacity="1.0"
     inkscape:pageshadow="2"
     inkscape:pageopacity="0.0"
     inkscape:pagecheckerboard="true"
     showgrid="false"
     inkscape:showpageshadow="false"
     inkscape:zoom="0.027733579"
     inkscape:cx="12241.478"
     inkscape:cy="13251.085"
     inkscape:window-width="1728"
     inkscape:window-height="1001"
     inkscape:window-x="0"
     inkscape:window-y="38"
     inkscape:window-maximized="0"
     inkscape:current-layer="g2891"
     units="px"
     width="22000px"
     fit-margin-top="2809.2656"
     fit-margin-left="1000"
     fit-margin-right="1000"
     fit-margin-bottom="2809.2656" /><g
     inkscape:groupmode="layer"
     id="layer8"
     inkscape:label="color: white (FFFFFF/255,255,255)"
     style="display:none"><g
       inkscape:groupmode="layer"
       id="layer5"
       inkscape:label="background square - wren (#4a4139 / RGB: 74, 65, 58)"
       style="display:none"><rect
         style="clip-rule:evenodd;display:inline;fill:#4a4139;fill-opacity:1;fill-rule:evenodd;stroke:#ffffff;stroke-width:0;stroke-linejoin:round;stroke-miterlimit:2;stroke-dasharray:none"
         id="rect1249-0"
         width="21991.541"
         height="21991.541"
         x="-21995.77"
         y="4.229373"
         transform="scale(-1,1)" /></g><g
       inkscape:groupmode="layer"
       id="g972"
       inkscape:label="background round - wren (#4a4139 / RGB: 74, 65, 58)"
       style="display:inline"><ellipse
         style="fill:#4a4139;stroke:#ffffff;stroke-width:0;stroke-miterlimit:2"
         id="path996"
         cx="6330.6899"
         cy="5015.5566"
         rx="3855.1453"
         ry="2823.6682" /><circle
         style="fill:#4a4139;stroke:#ffffff;stroke-width:0;stroke-miterlimit:2"
         id="path1000"
         cx="11000"
         cy="11000"
         r="11000" /></g><g
       inkscape:groupmode="layer"
       id="g998"
       inkscape:label="website label contoured guide"
       style="display:none"><circle
         style="fill:none;fill-opacity:1;stroke:#ff0000;stroke-width:100;stroke-miterlimit:2;stroke-dasharray:none"
         id="circle996"
         cx="-11000"
         cy="-11000"
         transform="matrix(0,-1,-1,0,0,0)"
         r="10582.677" /></g><g
       inkscape:groupmode="layer"
       id="g1030"
       inkscape:label="website label contoured - white (FFFFFF/255,255,255)"
       style="display:inline"
       transform="translate(0,-0.001)"><text
         xml:space="preserve"
         id="text1020"
         style="font-style:normal;font-weight:normal;font-size:40px;line-height:1.25;font-family:sans-serif;white-space:pre;shape-inside:url(#rect1032);fill:#000000;fill-opacity:1;stroke:none" /><text
         xml:space="preserve"
         id="text1024"
         style="font-style:normal;font-weight:normal;font-size:40px;line-height:1.25;font-family:sans-serif;white-space:pre;shape-inside:url(#rect1034);fill:#000000;fill-opacity:1;stroke:none"><tspan
           x="6814.25"
           y="20175.421"
           id="tspan1262">WW</tspan></text><text
         xml:space="preserve"
         style="font-weight:600;font-size:1000px;line-height:1.25;font-family:'Source Code Pro';-inkscape-font-specification:'Source Code Pro Semi-Bold';text-align:center;text-anchor:middle;stroke-width:0.967702"
         id="text1028"><textPath
           xlink:href="#circle996"
           startOffset="50%"
           id="textPath6326"
           style="fill:#ffffff">www.wrencode.com</textPath></text></g><g
       inkscape:groupmode="layer"
       id="g3108"
       inkscape:label="curly braces - white (FFFFFF/255,255,255)"
       style="display:inline"
       transform="translate(0.01758,-0.003)"><path
         id="path3106"
         style="clip-rule:evenodd;fill:#ffffff;fill-opacity:1;fill-rule:nonzero;stroke-width:0.96;stroke-linejoin:round;stroke-miterlimit:2"
         d="m 13895.008,2809.2686 v 419.0606 h 1142.89 c 558.743,0 1015.898,41.2701 1371.464,123.8119 355.566,82.5417 634.94,209.5304 838.12,380.9643 203.181,171.4339 342.868,387.3131 419.06,647.6382 76.193,260.3251 114.289,561.9209 114.289,904.7887 0,584.1408 -25.397,1196.862 -76.193,1838.1506 -50.795,641.2896 -76.192,1273.0574 -76.192,1895.2987 0,520.6464 101.59,946.0564 304.77,1276.2244 203.175,330.169 622.239,552.397 1257.178,666.686 v 76.195 c -634.936,114.289 -1053.996,336.517 -1257.178,666.686 -203.18,330.164 -304.77,755.574 -304.77,1276.224 0,355.569 6.35,688.911 19.048,1000.032 12.699,311.119 28.571,615.889 47.619,914.311 19.049,298.422 38.098,596.845 57.146,895.266 19.048,298.422 28.572,606.368 28.572,923.837 0,342.868 -38.096,644.464 -114.289,904.789 -76.192,260.325 -215.879,476.204 -419.06,647.638 -203.18,171.433 -482.554,298.422 -838.12,380.964 -355.564,82.542 -812.717,123.812 -1371.464,123.812 h -1142.89 v 419.049 h 914.312 c 584.144,0 1095.271,-38.099 1533.379,-114.288 438.112,-76.193 800.027,-203.182 1085.75,-380.964 285.723,-177.784 501.602,-422.235 647.638,-733.356 146.037,-311.117 219.054,-701.604 219.054,-1171.459 0,-711.139 -25.397,-1387.345 -76.192,-2028.634 -50.796,-641.289 -76.192,-1304.797 -76.192,-1990.532 0,-190.482 38.095,-380.962 114.289,-571.445 76.192,-190.483 219.052,-355.565 428.583,-495.252 209.529,-139.686 498.428,-253.976 866.693,-342.868 368.265,-88.891 850.818,-133.337 1447.66,-133.337 v -457.156 c -596.841,0 -1079.396,-44.446 -1447.66,-133.337 -368.265,-88.893 -657.164,-203.182 -866.693,-342.869 -209.531,-139.686 -352.391,-304.7714 -428.583,-495.2527 -76.194,-190.4822 -114.289,-380.9633 -114.289,-571.4455 0,-609.5424 25.396,-1269.8745 76.192,-1981.0069 50.795,-711.1296 76.192,-1390.5187 76.192,-2038.1568 0,-469.8509 -73.017,-860.3382 -219.054,-1171.4588 -146.036,-311.1202 -361.915,-555.5722 -647.638,-733.3556 -285.726,-177.7824 -647.642,-304.7711 -1085.75,-380.9644 -438.106,-76.1922 -949.235,-114.2887 -1533.379,-114.2887 z m -6685.3163,0.011 c -584.1446,0 -1095.2702,38.0965 -1533.3787,114.2888 -438.1113,76.1933 -803.2014,203.1819 -1095.2737,380.9643 -292.0724,177.7834 -511.127,422.2343 -657.1631,733.3557 -146.0362,311.1168 -219.0525,701.604 -219.0525,1171.4587 0,647.6352 28.5716,1327.0244 85.7156,2038.1569 57.1449,711.1296 85.7175,1371.4672 85.7175,1981.0086 0,190.4823 -38.0955,380.9635 -114.2888,571.4457 -76.1923,190.4813 -219.0541,355.5647 -428.5837,495.2517 -209.5306,139.686 -501.6035,253.976 -876.2175,342.868 -374.6112,88.891 -860.3409,133.337 -1457.18438,133.337 v 457.157 c 596.84158,0 1082.57028,44.445 1457.18438,133.337 374.614,88.892 666.6869,203.181 876.2175,342.868 209.5296,139.687 352.3914,304.77 428.5837,495.253 76.1933,190.482 114.2888,380.963 114.2888,571.446 0,685.728 -28.5726,1349.241 -85.7175,1990.53 -57.144,641.289 -85.7156,1317.501 -85.7156,2028.633 0,469.851 73.0163,860.338 219.0525,1171.459 146.0361,311.12 365.0907,555.572 657.1631,733.355 292.0752,177.782 657.1653,304.771 1095.2737,380.965 438.1056,76.192 949.2341,114.289 1533.3787,114.289 v 0.03 h 914.3137 v -419.059 H 6981.1142 c -558.744,0 -1012.7255,-41.272 -1361.9418,-123.814 -349.2173,-82.542 -625.4161,-209.531 -828.5962,-380.964 -203.1812,-171.434 -339.6928,-387.313 -409.5357,-647.638 -69.8438,-260.326 -104.7656,-561.921 -104.7656,-904.789 0,-317.469 6.3502,-625.415 19.0481,-923.837 12.6989,-298.422 28.573,-596.842 47.6213,-895.264 19.0483,-298.422 34.9223,-603.194 47.6212,-914.314 12.6989,-311.122 19.0481,-644.464 19.0481,-1000.031 0,-533.354 -104.7672,-961.938 -314.2968,-1285.756 -209.5296,-323.82 -631.7593,-542.875 -1266.6994,-657.164 v -76.192 c 634.9363,-114.289 1057.1688,-333.342 1266.6994,-657.161 209.5296,-323.8278 314.2968,-752.4083 314.2968,-1285.7574 0,-622.2432 -22.2232,-1254.012 -66.6693,-1895.3007 -44.4461,-641.2896 -66.6694,-1254.0069 -66.6694,-1838.1505 0,-342.8679 34.9218,-644.4637 104.7656,-904.7888 69.8429,-260.3251 206.3545,-476.2042 409.5357,-647.6381 203.1801,-171.4339 479.3789,-298.4207 828.5962,-380.9625 349.2192,-82.5418 803.1959,-123.8138 1361.9418,-123.8138 h 1142.8912 v -419.0606 z" /></g><g
       inkscape:groupmode="layer"
       id="g2887"
       inkscape:label="wren - white (FFFFFF/255,255,255) "
       style="display:inline"
       transform="translate(0.01758,-0.003)"><path
         id="path2885"
         style="clip-rule:evenodd;display:inline;fill:#ffffff;fill-opacity:1;fill-rule:nonzero;stroke-width:0.96;stroke-linejoin:round;stroke-miterlimit:2"
         d="m 5730.4874,5332.1317 v 0.01 c -280.5687,73.0646 -540.6795,207.5034 -686.8088,479.3044 -37.9939,67.2192 -49.6839,143.2072 -40.9162,219.195 78.91,464.6889 160.741,929.3791 248.4188,1394.0719 108.1363,587.4432 336.0988,1131.0451 590.3643,1665.8793 274.7194,569.904 604.9719,1104.7357 1040.4375,1569.4267 70.1424,75.988 166.5884,137.362 242.5762,40.917 40.9162,-52.607 43.8382,-181.2 8.7675,-242.575 -111.0585,-187.045 -236.7308,-365.324 -377.0156,-534.8337 -453.0009,-546.528 -809.557,-1151.5032 -1011.2156,-1826.6212 -184.1232,-613.7472 -298.1033,-1247.9476 -438.3881,-1873.3819 -32.1485,-146.1292 122.7479,-438.3903 254.265,-470.5388 166.5878,-40.9161 330.2532,-5.8429 415.0088,151.9763 333.1766,631.2768 686.8103,1253.7895 970.3011,1908.45 347.7888,803.712 455.923,1677.5713 642.9694,2528.0453 52.6061,239.652 55.5303,482.226 -181.2,672.195 -151.9747,119.826 -263.034,292.259 -371.1694,455.925 -37.9939,58.451 -35.0716,172.431 0,236.728 23.3808,46.762 131.5158,75.989 198.735,70.144 569.904,-58.452 1139.8082,-154.898 1709.7131,-189.97 455.9271,-29.225 914.7721,-2.923 1370.6966,37.994 499.756,43.839 990.754,-2.922 1475.904,-87.677 558.215,-99.368 1066.746,-318.562 1452.528,-754.028 242.575,-274.724 417.932,-587.442 397.473,-970.3007 -2.922,-55.5293 -58.453,-111.0579 -87.679,-166.5862 -49.684,43.8383 -113.981,75.9851 -143.207,131.5143 -87.678,160.7424 -146.128,336.0976 -236.728,490.9946 -178.279,306.873 -409.165,572.829 -739.418,701.423 -490.992,189.968 -1005.369,318.562 -1540.203,309.795 -528.992,-8.768 -1055.0602,-40.917 -1584.049,-32.149 -377.0151,8.767 -754.029,58.451 -1131.0431,102.29 -257.1888,29.226 -514.377,75.989 -794.9457,119.828 134.4394,-134.439 248.4212,-239.654 353.6344,-353.634 467.616,-499.759 999.5272,-923.533 1572.3544,-1294.7025 830.016,-537.7527 1674.654,-1046.2835 2709.246,-1107.6582 248.42,-14.6131 415.008,-160.7423 526.066,-409.1625 108.137,-239.6524 260.111,-485.1507 453.002,-660.5063 432.548,-391.6272 993.682,-496.8398 1557.742,-561.1367 377.012,-40.9162 718.957,75.9862 1066.745,210.4255 359.478,137.3616 406.239,242.574 172.432,531.9112 -32.148,37.993 -58.45,81.8327 -87.677,122.7488 -286.414,423.7728 -394.55,911.8448 -528.989,1388.2275 -140.285,490.992 -230.886,993.6782 -353.636,1487.5962 -157.819,622.509 -534.832,1119.35 -1011.215,1508.055 -648.816,531.911 -1452.53,727.725 -2267.932,862.164 -491.002,78.91 -993.685,96.445 -1470.068,277.645 -137.3614,49.685 -365.3235,46.762 -470.5367,-35.07 -312.7171,-239.652 -584.5186,-531.911 -873.8549,-803.714 -169.5101,-160.742 -330.2539,-330.251 -517.2994,-470.536 -55.5293,-40.916 -210.4255,-23.379 -263.0325,26.304 -84.7555,78.91 -43.8375,187.049 46.7625,277.646 333.1795,333.175 660.5097,669.273 987.84,1011.216 613.7376,637.123 1221.644,1274.249 1829.538,1914.298 75.987,81.832 149.052,172.431 210.427,268.877 111.058,166.587 40.916,365.325 -151.975,423.776 -131.517,37.994 -277.647,37.993 -406.241,87.677 -105.213,40.917 -195.812,128.595 -292.258,192.893 105.214,32.148 213.349,96.445 318.562,90.6 914.774,-55.529 1826.622,-67.221 2715.09,213.348 49.684,14.612 154.9,-5.845 163.667,-32.148 17.536,-61.375 5.844,-128.595 -26.305,-184.123 -140.284,-236.731 -122.747,-268.877 157.821,-303.949 55.53,-8.768 102.29,-58.452 151.974,-87.679 -32.148,-43.838 -55.529,-99.368 -96.445,-131.517 -46.762,-32.148 -102.29,-52.606 -157.819,-61.373 -409.168,-75.987 -830.022,-87.678 -1242.107,-32.149 -236.73,32.147 -420.852,-29.225 -581.595,-184.123 -239.652,-227.962 -488.073,-450.08 -701.423,-701.423 -192.891,-225.04 -356.555,-470.537 -493.918,-733.57 -20.458,-37.994 -35.071,-81.833 -40.916,-125.671 -26.303,-195.815 111.061,-371.169 303.948,-397.472 111.059,-14.613 227.964,-2.922 333.177,35.072 645.898,254.261 1163.193,692.65 1660.033,1160.265 125.672,119.826 48.062,210.637 -103.912,307.083 -80.134,42.752 -417.402,39.645 -606.879,265.357 91.375,25.318 208.105,55.45 340.641,53.588 206.201,-2.899 436.655,-48.23 561.421,-39.679 507.972,-12.396 1004.071,97.537 1477.531,147.222 119.741,11.973 293.718,36.581 313.434,-8.289 13.969,-31.792 -19.688,-105.808 -95.894,-189.354 -5.845,-43.84 -106.446,-120.18 -94.757,-161.096 14.646,-53.312 131.982,-38.291 227.22,-65.606 102.802,-29.485 183.112,-100.154 173.023,-128.598 -11.786,-33.223 -80.876,-98.031 -179.88,-122.813 -129.449,-32.403 -303.04,-11.63 -395.753,-19.356 -92.293,8.001 -159.815,16.767 -272.263,27.994 -435.47,102.291 -800.331,9.535 -1113.048,-341.176 -137.362,-157.819 -321.485,-271.802 -485.151,-400.396 -134.439,-108.132 -274.723,-201.657 -409.162,-312.716 -134.44,-111.057 -102.29,-321.485 55.53,-371.169 108.135,-32.148 216.271,-61.374 327.329,-81.833 1022.909,-187.047 1788.63,-756.95 2367.303,-1592.812 499.763,-724.8 651.738,-1578.2 824.17,-2416.983 87.678,-432.5472 207.505,-856.3225 432.545,-1236.2588 201.659,-339.0211 514.375,-561.1366 879.698,-713.1112 58.453,-23.3808 93.524,-108.1376 137.363,-163.6669 -61.375,-43.8384 -113.982,-108.1345 -184.123,-128.5931 -70.143,-20.4585 -151.975,-8e-4 -227.963,-5.8462 -175.355,-14.6132 -356.556,-5.8435 -523.143,-52.6051 -344.863,-99.3686 -672.193,-263.0338 -1019.981,-333.1762 -324.405,-64.297 -675.116,-102.2908 -999.523,-49.6838 -739.419,116.9088 -1280.098,575.755 -1698.029,1174.8862 -163.665,236.7293 -371.169,365.3252 -648.815,403.3182 -724.8,99.3686 -1382.381,385.7812 -2004.8927,751.1044 -531.912,309.7925 -1025.8293,675.1185 -1478.8312,1090.1265 -204.5818,189.968 -330.2538,146.129 -388.7062,-113.982 C 7703.2314,9505.5926 7586.3277,8947.3756 7448.9661,8395.006 7183.0077,7328.2636 6627.7174,6395.9542 6022.7417,5489.9504 5967.2132,5405.1969 5812.3206,5311.6763 5730.4874,5332.1317 Z M 14600.54,7430.5435 c -189.968,2.9232 -271.8,87.6776 -274.722,277.6463 2.922,166.5878 122.747,295.1822 274.722,292.2599 149.052,-2.9232 289.336,-157.8213 283.491,-303.9505 v -2.9231 c -5.846,-151.9748 -131.516,-268.877 -283.491,-263.0326 z M 3754.1755,17021.923 c -7.716,13.196 -16.5654,25.879 -23.6587,39.356 -5.3059,10.081 23.1277,-5.493 30.1331,-18.192 -0.7719,-4.94 -1.5973,-9.872 -2.3682,-14.812 -1.4629,-2.1 -2.8895,-4.206 -4.1062,-6.352 z"
         sodipodi:nodetypes="ccccccccccccccccccccccccccccccccccccccccccccccccccccccccccccccccccccccccccccsccsccsssccccscccccccscccccccccccccccccccsccc" /></g><g
       inkscape:groupmode="layer"
       id="layer2"
       inkscape:label="wrencode label - white (FFFFFF/255,255,255)"
       style="display:none"
       transform="translate(0,-0.001)"><text
         xml:space="preserve"
         id="text4893"
         style="font-style:normal;font-weight:normal;font-size:40px;line-height:1.25;font-family:sans-serif;white-space:pre;shape-inside:url(#rect4895);fill:#000000;fill-opacity:1;stroke:none" /><text
         xml:space="preserve"
         id="text6483"
         style="font-style:normal;font-weight:normal;font-size:40px;line-height:1.25;font-family:sans-serif;white-space:pre;shape-inside:url(#rect6485);fill:#000000;fill-opacity:1;stroke:none"><tspan
           x="6814.25"
           y="20175.421"
           id="tspan1264">WW</tspan></text><text
         xml:space="preserve"
         style="font-weight:600;font-size:2580.54px;line-height:1.25;font-family:'Source Code Pro';-inkscape-font-specification:'Source Code Pro Semi-Bold';fill:#ffffff;fill-opacity:1;stroke-width:0.967702"
         x="981.93988"
         y="21195.184"
         id="text21945"><tspan
           sodipodi:role="line"
           id="tspan21943"
           x="981.93988"
           y="21195.184"
           style="fill:#ffffff;fill-opacity:1;stroke-width:0.967702">Wrencode, LLC</tspan></text></g><g
       inkscape:groupmode="layer"
       id="layer3"
       inkscape:label="wrencode label contoured - white (FFFFFF/255,255,255)"
       style="display:inline"
       transform="translate(0,-0.001)"><text
         xml:space="preserve"
         id="text30790"
         style="font-weight:600;font-size:40px;line-height:1.25;font-family:'Source Code Pro';-inkscape-font-specification:'Source Code Pro Semi-Bold';white-space:pre;shape-inside:url(#rect30792)" /><text
         xml:space="preserve"
         id="text32886"
         style="font-weight:600;font-size:40px;line-height:1.25;font-family:'Source Code Pro';-inkscape-font-specification:'Source Code Pro Semi-Bold';white-space:pre;shape-inside:url(#rect32888)" /><text
         xml:space="preserve"
         style="font-style:normal;font-variant:normal;font-weight:bold;font-stretch:normal;font-size:533.333px;line-height:1.25;font-family:'Source Code Pro';-inkscape-font-specification:'Source Code Pro Bold';fill:#4a4139;fill-opacity:1"
         id="text37360"
         transform="translate(-85.650684,-201.13128)"><textPath
           xlink:href="#path52336"
           id="textPath52418"
           style="font-style:normal;font-variant:normal;font-weight:bold;font-stretch:normal;font-size:533.333px;font-family:'Source Code Pro';-inkscape-font-specification:'Source Code Pro Bold';fill:#ffffff;fill-opacity:1"> Wrencode, LLC</textPath></text><path
         style="fill:none;stroke:#000000;stroke-width:0;stroke-linecap:butt;stroke-linejoin:miter;stroke-miterlimit:2;stroke-dasharray:none;stroke-opacity:1"
         d="m 7990.4842,10294.937 63.244,-11.858 100.7951,-55.338 420.9679,-361.677 158.11,-128.4643 250.9996,-189.732 264.8342,-185.7793 189.732,-120.5589 169.9683,-100.7951 177.8737,-108.7006 209.4958,-112.6534 138.3462,-77.0786 118.583,-59.2913 217.401,-96.8423 169.968,-73.1259 207.519,-71.1495 213.449,-69.1731 189.732,-51.3858 195.661,-41.5039 294.48,-49.4093 106.724,-21.7402 -3763.0178,2000.0915 z"
         id="path52336" /></g></g><g
     inkscape:groupmode="layer"
     id="layer7"
     inkscape:label="color: black (000000/0,0,0)"
     style="display:none"><g
       inkscape:groupmode="layer"
       id="g3629"
       inkscape:label="background square - white (FFFFFF/255,255,255)"
       style="display:none"><rect
         style="fill:#ffffff;stroke:#ffffff;stroke-width:0;stroke-miterlimit:2;stroke-dasharray:none"
         id="rect3627"
         width="22000"
         height="22000"
         x="4.2309999"
         y="4.2309999" /></g><g
       inkscape:groupmode="layer"
       id="g1244"
       inkscape:label="background round - white (FFFFFF/255,255,255)"
       style="display:inline"><circle
         style="fill:#ffffff;fill-opacity:1;stroke:#ffffff;stroke-width:0;stroke-miterlimit:2"
         id="path1348"
         cx="11000"
         cy="11000"
         r="11000" /></g><g
       inkscape:groupmode="layer"
       id="g994"
       inkscape:label="website label contoured guide"
       style="display:none"><circle
         style="fill:none;fill-opacity:1;stroke:#ff0000;stroke-width:100;stroke-miterlimit:2;stroke-dasharray:none"
         id="circle992"
         cx="-11000"
         cy="-11000"
         transform="matrix(0,-1,-1,0,0,0)"
         r="10582.677" /></g><g
       inkscape:groupmode="layer"
       id="g1014"
       inkscape:label="website label contoured - black (000000/0,0,0)"
       style="display:inline"
       transform="translate(0,-0.001)"><text
         xml:space="preserve"
         id="text1004"
         style="font-style:normal;font-weight:normal;font-size:40px;line-height:1.25;font-family:sans-serif;white-space:pre;shape-inside:url(#rect1016);fill:#000000;fill-opacity:1;stroke:none" /><text
         xml:space="preserve"
         id="text1008"
         style="font-style:normal;font-weight:normal;font-size:40px;line-height:1.25;font-family:sans-serif;white-space:pre;shape-inside:url(#rect1018);fill:#000000;fill-opacity:1;stroke:none"><tspan
           x="6814.25"
           y="20175.421"
           id="tspan1266">WW</tspan></text><text
         xml:space="preserve"
         style="font-weight:600;font-size:1000px;line-height:1.25;font-family:'Source Code Pro';-inkscape-font-specification:'Source Code Pro Semi-Bold';text-align:center;text-anchor:middle;stroke-width:0.967702"
         id="text1012"><textPath
           xlink:href="#circle992"
           startOffset="50%"
           id="textPath3952">www.wrencode.com</textPath></text></g><g
       inkscape:groupmode="layer"
       id="g4011"
       inkscape:label="curly braces - black (000000/0,0,0)"
       style="display:inline"
       transform="translate(0.01758,-0.003)"><path
         id="path4009"
         style="clip-rule:evenodd;fill:#000000;fill-opacity:1;fill-rule:nonzero;stroke-width:0.96;stroke-linejoin:round;stroke-miterlimit:2"
         d="m 13895.008,2809.2686 v 419.0606 h 1142.89 c 558.743,0 1015.898,41.2701 1371.464,123.8119 355.566,82.5417 634.94,209.5304 838.12,380.9643 203.181,171.4339 342.868,387.3131 419.06,647.6382 76.193,260.3251 114.289,561.9209 114.289,904.7887 0,584.1408 -25.397,1196.862 -76.193,1838.1506 -50.795,641.2896 -76.192,1273.0574 -76.192,1895.2987 0,520.6464 101.59,946.0564 304.77,1276.2244 203.175,330.169 622.239,552.397 1257.178,666.686 v 76.195 c -634.936,114.289 -1053.996,336.517 -1257.178,666.686 -203.18,330.164 -304.77,755.574 -304.77,1276.224 0,355.569 6.35,688.911 19.048,1000.032 12.699,311.119 28.571,615.889 47.619,914.311 19.049,298.422 38.098,596.845 57.146,895.266 19.048,298.422 28.572,606.368 28.572,923.837 0,342.868 -38.096,644.464 -114.289,904.789 -76.192,260.325 -215.879,476.204 -419.06,647.638 -203.18,171.433 -482.554,298.422 -838.12,380.964 -355.564,82.542 -812.717,123.812 -1371.464,123.812 h -1142.89 v 419.049 h 914.312 c 584.144,0 1095.271,-38.099 1533.379,-114.288 438.112,-76.193 800.027,-203.182 1085.75,-380.964 285.723,-177.784 501.602,-422.235 647.638,-733.356 146.037,-311.117 219.054,-701.604 219.054,-1171.459 0,-711.139 -25.397,-1387.345 -76.192,-2028.634 -50.796,-641.289 -76.192,-1304.797 -76.192,-1990.532 0,-190.482 38.095,-380.962 114.289,-571.445 76.192,-190.483 219.052,-355.565 428.583,-495.252 209.529,-139.686 498.428,-253.976 866.693,-342.868 368.265,-88.891 850.818,-133.337 1447.66,-133.337 v -457.156 c -596.841,0 -1079.396,-44.446 -1447.66,-133.337 -368.265,-88.893 -657.164,-203.182 -866.693,-342.869 -209.531,-139.686 -352.391,-304.7714 -428.583,-495.2527 -76.194,-190.4822 -114.289,-380.9633 -114.289,-571.4455 0,-609.5424 25.396,-1269.8745 76.192,-1981.0069 50.795,-711.1296 76.192,-1390.5187 76.192,-2038.1568 0,-469.8509 -73.017,-860.3382 -219.054,-1171.4588 -146.036,-311.1202 -361.915,-555.5722 -647.638,-733.3556 -285.726,-177.7824 -647.642,-304.7711 -1085.75,-380.9644 -438.106,-76.1922 -949.235,-114.2887 -1533.379,-114.2887 z m -6685.3163,0.011 c -584.1446,0 -1095.2702,38.0965 -1533.3787,114.2888 -438.1113,76.1933 -803.2014,203.1819 -1095.2737,380.9643 -292.0724,177.7834 -511.127,422.2343 -657.1631,733.3557 -146.0362,311.1168 -219.0525,701.604 -219.0525,1171.4587 0,647.6352 28.5716,1327.0244 85.7156,2038.1569 57.1449,711.1296 85.7175,1371.4672 85.7175,1981.0086 0,190.4823 -38.0955,380.9635 -114.2888,571.4457 -76.1923,190.4813 -219.0541,355.5647 -428.5837,495.2517 -209.5306,139.686 -501.6035,253.976 -876.2175,342.868 -374.6112,88.891 -860.3409,133.337 -1457.18438,133.337 v 457.157 c 596.84158,0 1082.57028,44.445 1457.18438,133.337 374.614,88.892 666.6869,203.181 876.2175,342.868 209.5296,139.687 352.3914,304.77 428.5837,495.253 76.1933,190.482 114.2888,380.963 114.2888,571.446 0,685.728 -28.5726,1349.241 -85.7175,1990.53 -57.144,641.289 -85.7156,1317.501 -85.7156,2028.633 0,469.851 73.0163,860.338 219.0525,1171.459 146.0361,311.12 365.0907,555.572 657.1631,733.355 292.0752,177.782 657.1653,304.771 1095.2737,380.965 438.1056,76.192 949.2341,114.289 1533.3787,114.289 v 0.03 h 914.3137 v -419.059 H 6981.1142 c -558.744,0 -1012.7255,-41.272 -1361.9418,-123.814 -349.2173,-82.542 -625.4161,-209.531 -828.5962,-380.964 -203.1812,-171.434 -339.6928,-387.313 -409.5357,-647.638 -69.8438,-260.326 -104.7656,-561.921 -104.7656,-904.789 0,-317.469 6.3502,-625.415 19.0481,-923.837 12.6989,-298.422 28.573,-596.842 47.6213,-895.264 19.0483,-298.422 34.9223,-603.194 47.6212,-914.314 12.6989,-311.122 19.0481,-644.464 19.0481,-1000.031 0,-533.354 -104.7672,-961.938 -314.2968,-1285.756 -209.5296,-323.82 -631.7593,-542.875 -1266.6994,-657.164 v -76.192 c 634.9363,-114.289 1057.1688,-333.342 1266.6994,-657.161 209.5296,-323.8278 314.2968,-752.4083 314.2968,-1285.7574 0,-622.2432 -22.2232,-1254.012 -66.6693,-1895.3007 -44.4461,-641.2896 -66.6694,-1254.0069 -66.6694,-1838.1505 0,-342.8679 34.9218,-644.4637 104.7656,-904.7888 69.8429,-260.3251 206.3545,-476.2042 409.5357,-647.6381 203.1801,-171.4339 479.3789,-298.4207 828.5962,-380.9625 349.2192,-82.5418 803.1959,-123.8138 1361.9418,-123.8138 h 1142.8912 v -419.0606 z" /></g><g
       inkscape:groupmode="layer"
       id="g4007"
       inkscape:label="wren - black (000000/0,0,0)"
       style="display:inline"
       transform="translate(0.01758,-0.003)"><path
         id="path4005"
         style="clip-rule:evenodd;display:inline;fill:#000000;fill-opacity:1;fill-rule:nonzero;stroke-width:0.96;stroke-linejoin:round;stroke-miterlimit:2"
         d="m 5730.4874,5332.1317 v 0.01 c -280.5687,73.0646 -540.6795,207.5034 -686.8088,479.3044 -37.9939,67.2192 -49.6839,143.2072 -40.9162,219.195 78.91,464.6889 160.741,929.3791 248.4188,1394.0719 108.1363,587.4432 336.0988,1131.0451 590.3643,1665.8793 274.7194,569.904 604.9719,1104.7357 1040.4375,1569.4267 70.1424,75.988 166.5884,137.362 242.5762,40.917 40.9162,-52.607 43.8382,-181.2 8.7675,-242.575 -111.0585,-187.045 -236.7308,-365.324 -377.0156,-534.8337 -453.0009,-546.528 -809.557,-1151.5032 -1011.2156,-1826.6212 -184.1232,-613.7472 -298.1033,-1247.9476 -438.3881,-1873.3819 -32.1485,-146.1292 122.7479,-438.3903 254.265,-470.5388 166.5878,-40.9161 330.2532,-5.8429 415.0088,151.9763 333.1766,631.2768 686.8103,1253.7895 970.3011,1908.45 347.7888,803.712 455.923,1677.5713 642.9694,2528.0453 52.6061,239.652 55.5303,482.226 -181.2,672.195 -151.9747,119.826 -263.034,292.259 -371.1694,455.925 -37.9939,58.451 -35.0716,172.431 0,236.728 23.3808,46.762 131.5158,75.989 198.735,70.144 569.904,-58.452 1139.8082,-154.898 1709.7131,-189.97 455.9271,-29.225 914.7721,-2.923 1370.6966,37.994 499.756,43.839 990.754,-2.922 1475.904,-87.677 558.215,-99.368 1066.746,-318.562 1452.528,-754.028 242.575,-274.724 417.932,-587.442 397.473,-970.3007 -2.922,-55.5293 -58.453,-111.0579 -87.679,-166.5862 -49.684,43.8383 -113.981,75.9851 -143.207,131.5143 -87.678,160.7424 -146.128,336.0976 -236.728,490.9946 -178.279,306.873 -409.165,572.829 -739.418,701.423 -490.992,189.968 -1005.369,318.562 -1540.203,309.795 -528.992,-8.768 -1055.0602,-40.917 -1584.049,-32.149 -377.0151,8.767 -754.029,58.451 -1131.0431,102.29 -257.1888,29.226 -514.377,75.989 -794.9457,119.828 134.4394,-134.439 248.4212,-239.654 353.6344,-353.634 467.616,-499.759 999.5272,-923.533 1572.3544,-1294.7025 830.016,-537.7527 1674.654,-1046.2835 2709.246,-1107.6582 248.42,-14.6131 415.008,-160.7423 526.066,-409.1625 108.137,-239.6524 260.111,-485.1507 453.002,-660.5063 432.548,-391.6272 993.682,-496.8398 1557.742,-561.1367 377.012,-40.9162 718.957,75.9862 1066.745,210.4255 359.478,137.3616 406.239,242.574 172.432,531.9112 -32.148,37.993 -58.45,81.8327 -87.677,122.7488 -286.414,423.7728 -394.55,911.8448 -528.989,1388.2275 -140.285,490.992 -230.886,993.6782 -353.636,1487.5962 -157.819,622.509 -534.832,1119.35 -1011.215,1508.055 -648.816,531.911 -1452.53,727.725 -2267.932,862.164 -491.002,78.91 -993.685,96.445 -1470.068,277.645 -137.3614,49.685 -365.3235,46.762 -470.5367,-35.07 -312.7171,-239.652 -584.5186,-531.911 -873.8549,-803.714 -169.5101,-160.742 -330.2539,-330.251 -517.2994,-470.536 -55.5293,-40.916 -210.4255,-23.379 -263.0325,26.304 -84.7555,78.91 -43.8375,187.049 46.7625,277.646 333.1795,333.175 660.5097,669.273 987.84,1011.216 613.7376,637.123 1221.644,1274.249 1829.538,1914.298 75.987,81.832 149.052,172.431 210.427,268.877 111.058,166.587 40.916,365.325 -151.975,423.776 -131.517,37.994 -277.647,37.993 -406.241,87.677 -105.213,40.917 -195.812,128.595 -292.258,192.893 105.214,32.148 213.349,96.445 318.562,90.6 914.774,-55.529 1826.622,-67.221 2715.09,213.348 49.684,14.612 154.9,-5.845 163.667,-32.148 17.536,-61.375 5.844,-128.595 -26.305,-184.123 -140.284,-236.731 -122.747,-268.877 157.821,-303.949 55.53,-8.768 102.29,-58.452 151.974,-87.679 -32.148,-43.838 -55.529,-99.368 -96.445,-131.517 -46.762,-32.148 -102.29,-52.606 -157.819,-61.373 -409.168,-75.987 -830.022,-87.678 -1242.107,-32.149 -236.73,32.147 -420.852,-29.225 -581.595,-184.123 -239.652,-227.962 -488.073,-450.08 -701.423,-701.423 -192.891,-225.04 -356.555,-470.537 -493.918,-733.57 -20.458,-37.994 -35.071,-81.833 -40.916,-125.671 -26.303,-195.815 111.061,-371.169 303.948,-397.472 111.059,-14.613 227.964,-2.922 333.177,35.072 645.898,254.261 1163.193,692.65 1660.033,1160.265 125.672,119.826 48.062,210.637 -103.912,307.083 -80.134,42.752 -417.402,39.645 -606.879,265.357 91.375,25.318 208.105,55.45 340.641,53.588 206.201,-2.899 436.655,-48.23 561.421,-39.679 507.972,-12.396 1004.071,97.537 1477.531,147.222 119.741,11.973 293.718,36.581 313.434,-8.289 13.969,-31.792 -19.688,-105.808 -95.894,-189.354 -5.845,-43.84 -106.446,-120.18 -94.757,-161.096 14.646,-53.312 131.982,-38.291 227.22,-65.606 102.802,-29.485 183.112,-100.154 173.023,-128.598 -11.786,-33.223 -80.876,-98.031 -179.88,-122.813 -129.449,-32.403 -303.04,-11.63 -395.753,-19.356 -92.293,8.001 -159.815,16.767 -272.263,27.994 -435.47,102.291 -800.331,9.535 -1113.048,-341.176 -137.362,-157.819 -321.485,-271.802 -485.151,-400.396 -134.439,-108.132 -274.723,-201.657 -409.162,-312.716 -134.44,-111.057 -102.29,-321.485 55.53,-371.169 108.135,-32.148 216.271,-61.374 327.329,-81.833 1022.909,-187.047 1788.63,-756.95 2367.303,-1592.812 499.763,-724.8 651.738,-1578.2 824.17,-2416.983 87.678,-432.5472 207.505,-856.3225 432.545,-1236.2588 201.659,-339.0211 514.375,-561.1366 879.698,-713.1112 58.453,-23.3808 93.524,-108.1376 137.363,-163.6669 -61.375,-43.8384 -113.982,-108.1345 -184.123,-128.5931 -70.143,-20.4585 -151.975,-8e-4 -227.963,-5.8462 -175.355,-14.6132 -356.556,-5.8435 -523.143,-52.6051 -344.863,-99.3686 -672.193,-263.0338 -1019.981,-333.1762 -324.405,-64.297 -675.116,-102.2908 -999.523,-49.6838 -739.419,116.9088 -1280.098,575.755 -1698.029,1174.8862 -163.665,236.7293 -371.169,365.3252 -648.815,403.3182 -724.8,99.3686 -1382.381,385.7812 -2004.8927,751.1044 -531.912,309.7925 -1025.8293,675.1185 -1478.8312,1090.1265 -204.5818,189.968 -330.2538,146.129 -388.7062,-113.982 C 7703.2314,9505.5926 7586.3277,8947.3756 7448.9661,8395.006 7183.0077,7328.2636 6627.7174,6395.9542 6022.7417,5489.9504 5967.2132,5405.1969 5812.3206,5311.6763 5730.4874,5332.1317 Z M 14600.54,7430.5435 c -189.968,2.9232 -271.8,87.6776 -274.722,277.6463 2.922,166.5878 122.747,295.1822 274.722,292.2599 149.052,-2.9232 289.336,-157.8213 283.491,-303.9505 v -2.9231 c -5.846,-151.9748 -131.516,-268.877 -283.491,-263.0326 z M 3754.1755,17021.923 c -7.716,13.196 -16.5654,25.879 -23.6587,39.356 -5.3059,10.081 23.1277,-5.493 30.1331,-18.192 -0.7719,-4.94 -1.5973,-9.872 -2.3682,-14.812 -1.4629,-2.1 -2.8895,-4.206 -4.1062,-6.352 z"
         sodipodi:nodetypes="ccccccccccccccccccccccccccccccccccccccccccccccccccccccccccccccccccccccccccccsccsccsssccccscccccccscccccccccccccccccccsccc" /></g><g
       inkscape:groupmode="layer"
       id="g4045"
       inkscape:label="wrencode label - black (000000/0,0,0)"
       style="display:none"
       transform="translate(0,-0.001)"><text
         xml:space="preserve"
         id="text4035"
         style="font-style:normal;font-weight:normal;font-size:40px;line-height:1.25;font-family:sans-serif;white-space:pre;shape-inside:url(#rect4047);fill:#000000;fill-opacity:1;stroke:none" /><text
         xml:space="preserve"
         id="text4039"
         style="font-style:normal;font-weight:normal;font-size:40px;line-height:1.25;font-family:sans-serif;white-space:pre;shape-inside:url(#rect4049);fill:#000000;fill-opacity:1;stroke:none"><tspan
           x="6814.25"
           y="20175.421"
           id="tspan1268">WW</tspan></text><text
         xml:space="preserve"
         style="font-weight:600;font-size:2580.54px;line-height:1.25;font-family:'Source Code Pro';-inkscape-font-specification:'Source Code Pro Semi-Bold';fill:#000000;fill-opacity:1;stroke-width:0.967702"
         x="981.93988"
         y="21195.184"
         id="text4043"><tspan
           sodipodi:role="line"
           id="tspan4041"
           x="981.93988"
           y="21195.184"
           style="fill:#000000;fill-opacity:1;stroke-width:0.967702">Wrencode, LLC</tspan></text></g><g
       inkscape:groupmode="layer"
       id="g4029"
       inkscape:label="wrencode label contoured - black (000000/0,0,0)"
       style="display:inline"
       transform="translate(0,-0.001)"><text
         xml:space="preserve"
         id="text4015"
         style="font-weight:600;font-size:40px;line-height:1.25;font-family:'Source Code Pro';-inkscape-font-specification:'Source Code Pro Semi-Bold';white-space:pre;shape-inside:url(#rect4031)" /><text
         xml:space="preserve"
         id="text4017"
         style="font-weight:600;font-size:40px;line-height:1.25;font-family:'Source Code Pro';-inkscape-font-specification:'Source Code Pro Semi-Bold';white-space:pre;shape-inside:url(#rect4033)" /><text
         xml:space="preserve"
         style="font-style:normal;font-variant:normal;font-weight:bold;font-stretch:normal;font-size:533.333px;line-height:1.25;font-family:'Source Code Pro';-inkscape-font-specification:'Source Code Pro Bold';fill:#4a4139;fill-opacity:1"
         id="text4021"
         transform="translate(-85.650684,-201.13128)"><textPath
           xlink:href="#path52336"
           id="textPath4019"
           style="font-style:normal;font-variant:normal;font-weight:bold;font-stretch:normal;font-size:533.333px;font-family:'Source Code Pro';-inkscape-font-specification:'Source Code Pro Bold';fill:#000000;fill-opacity:1"> Wrencode, LLC</textPath></text></g></g><g
     inkscape:groupmode="layer"
     id="layer6"
     inkscape:label="color: wren (#4a4139 / RGB: 74, 65, 58)"
     style="display:inline"><g
       inkscape:groupmode="layer"
       id="layer4"
       inkscape:label="background square - white (FFFFFF/255,255,255)"
       style="display:none"><rect
         style="fill:#ffffff;stroke:#ffffff;stroke-width:0;stroke-miterlimit:2;stroke-dasharray:none"
         id="rect1249"
         width="22000"
         height="22000"
         x="4.2309999"
         y="4.2309999" /></g><g
       inkscape:groupmode="layer"
       id="g3623"
       inkscape:label="background round - white (FFFFFF/255,255,255)"
       style="display:inline"><circle
         style="fill:#ffffff;fill-opacity:1;stroke:#ffffff;stroke-width:0;stroke-miterlimit:2"
         id="circle3621"
         cx="11000"
         cy="11000"
         r="11000" /></g><g
       inkscape:groupmode="layer"
       id="g1079"
       inkscape:label="website label contoured guide"
       style="display:none"><circle
         style="fill:none;fill-opacity:1;stroke:#ff0000;stroke-width:100;stroke-miterlimit:2;stroke-dasharray:none"
         id="circle1077"
         cx="-11000"
         cy="-11000"
         transform="matrix(0,-1,-1,0,0,0)"
         r="10582.677" /></g><g
       inkscape:groupmode="layer"
       id="g7535"
       inkscape:label="website label contoured - wren (#4a4139 / RGB: 74, 65, 58)"
       style="display:inline"
       transform="translate(0,-0.001)"><text
         xml:space="preserve"
         id="text7525"
         style="font-style:normal;font-weight:normal;font-size:40px;line-height:1.25;font-family:sans-serif;white-space:pre;shape-inside:url(#rect7537);fill:#000000;fill-opacity:1;stroke:none" /><text
         xml:space="preserve"
         id="text7529"
         style="font-style:normal;font-weight:normal;font-size:40px;line-height:1.25;font-family:sans-serif;white-space:pre;shape-inside:url(#rect7539);fill:#000000;fill-opacity:1;stroke:none"><tspan
           x="6814.25"
           y="20175.421"
           id="tspan1270">WW</tspan></text><text
         xml:space="preserve"
         style="font-weight:600;font-size:1000px;line-height:1.25;font-family:'Source Code Pro';-inkscape-font-specification:'Source Code Pro Semi-Bold';text-align:center;text-anchor:middle;stroke-width:0.967702"
         id="text7533"><textPath
           xlink:href="#circle1077"
           startOffset="50%"
           id="textPath12929"
           style="font-size:1000px;text-align:center;text-anchor:middle;fill:#4a4139;fill-opacity:1;stroke-width:0.967702">www.wrencode.com</textPath></text></g><g
       inkscape:groupmode="layer"
       id="g2891"
       inkscape:label="curly braces - wren (#4a4139 / RGB: 74, 65, 58)"
       style="display:inline"
       transform="translate(0.01758,-0.003)"><path
         style="clip-rule:evenodd;fill:#4a4139;fill-rule:nonzero;stroke-width:0.96;stroke-linejoin:round;stroke-miterlimit:2"
         d="m 7209.6917,2809.2796 c -584.1446,0 -1095.2702,38.0965 -1533.3787,114.2888 -438.1113,76.1933 -803.2014,203.1819 -1095.2737,380.9643 -292.0724,177.7834 -511.127,422.2343 -657.1631,733.3557 -146.0362,311.1168 -219.0525,701.604 -219.0525,1171.4587 0,647.6352 28.5716,1327.0244 85.7156,2038.1569 57.1449,711.1296 85.7175,1371.4672 85.7175,1981.0086 0,190.4823 -38.0955,380.9635 -114.2888,571.4457 -76.1923,190.4813 -219.0541,355.5647 -428.5837,495.2517 -209.5306,139.686 -501.6035,253.976 -876.2175,342.868 -374.6112,88.891 -860.3409,133.337 -1457.18438,133.337 v 457.157 c 596.84158,0 1082.57028,44.445 1457.18438,133.337 374.614,88.892 666.6869,203.181 876.2175,342.868 209.5296,139.687 352.3914,304.77 428.5837,495.253 76.1933,190.482 114.2888,380.963 114.2888,571.446 0,685.728 -28.5726,1349.241 -85.7175,1990.53 -57.144,641.289 -85.7156,1317.501 -85.7156,2028.633 0,469.851 73.0163,860.338 219.0525,1171.459 146.0361,311.12 365.0907,555.572 657.1631,733.355 292.0752,177.782 657.1653,304.771 1095.2737,380.965 438.1056,76.192 949.2341,114.289 1533.3787,114.289 v 0.03 h 914.3137 v -419.059 H 6981.1142 c -558.744,0 -1012.7255,-41.272 -1361.9418,-123.814 -349.2173,-82.542 -625.4161,-209.531 -828.5962,-380.964 -203.1812,-171.434 -339.6928,-387.313 -409.5357,-647.638 -69.8438,-260.326 -104.7656,-561.921 -104.7656,-904.789 0,-317.469 6.3502,-625.415 19.0481,-923.837 12.6989,-298.422 28.573,-596.842 47.6213,-895.264 19.0483,-298.422 34.9223,-603.194 47.6212,-914.314 12.6989,-311.122 19.0481,-644.464 19.0481,-1000.031 0,-533.354 -104.7672,-961.938 -314.2968,-1285.756 -209.5296,-323.82 -631.7593,-542.875 -1266.6994,-657.164 v -76.192 c 634.9363,-114.289 1057.1688,-333.342 1266.6994,-657.161 209.5296,-323.8278 314.2968,-752.4083 314.2968,-1285.7574 0,-622.2432 -22.2232,-1254.012 -66.6693,-1895.3007 -44.4461,-641.2896 -66.6694,-1254.0069 -66.6694,-1838.1505 0,-342.8679 34.9218,-644.4637 104.7656,-904.7888 69.8429,-260.3251 206.3545,-476.2042 409.5357,-647.6381 203.1801,-171.4339 479.3789,-298.4207 828.5962,-380.9625 349.2192,-82.5418 803.1959,-123.8138 1361.9418,-123.8138 h 1142.8912 v -419.0606 z"
         id="path1033" /><path
         style="clip-rule:evenodd;fill:#4a4139;fill-rule:nonzero;stroke-width:0.96;stroke-linejoin:round;stroke-miterlimit:2"
         d="m 13895.008,2809.2686 v 419.0606 h 1142.89 c 558.743,0 1015.898,41.2701 1371.464,123.8119 355.566,82.5417 634.94,209.5304 838.12,380.9643 203.181,171.4339 342.868,387.3131 419.06,647.6382 76.193,260.3251 114.289,561.9209 114.289,904.7887 0,584.1408 -25.397,1196.862 -76.193,1838.1506 -50.795,641.2896 -76.192,1273.0574 -76.192,1895.2987 0,520.6464 101.59,946.0564 304.77,1276.2244 203.175,330.169 622.239,552.397 1257.178,666.686 v 76.195 c -634.936,114.289 -1053.996,336.517 -1257.178,666.686 -203.18,330.164 -304.77,755.574 -304.77,1276.224 0,355.569 6.35,688.911 19.048,1000.032 12.699,311.119 28.571,615.889 47.619,914.311 19.049,298.422 38.098,596.845 57.146,895.266 19.048,298.422 28.572,606.368 28.572,923.837 0,342.868 -38.096,644.464 -114.289,904.789 -76.192,260.325 -215.879,476.204 -419.06,647.638 -203.18,171.433 -482.554,298.422 -838.12,380.964 -355.564,82.542 -812.717,123.812 -1371.464,123.812 h -1142.89 v 419.049 h 914.312 c 584.144,0 1095.271,-38.099 1533.379,-114.288 438.112,-76.193 800.027,-203.182 1085.75,-380.964 285.723,-177.784 501.602,-422.235 647.638,-733.356 146.037,-311.117 219.054,-701.604 219.054,-1171.459 0,-711.139 -25.397,-1387.345 -76.192,-2028.634 -50.796,-641.289 -76.192,-1304.797 -76.192,-1990.532 0,-190.482 38.095,-380.962 114.289,-571.445 76.192,-190.483 219.052,-355.565 428.583,-495.252 209.529,-139.686 498.428,-253.976 866.693,-342.868 368.265,-88.891 850.818,-133.337 1447.66,-133.337 v -457.156 c -596.841,0 -1079.396,-44.446 -1447.66,-133.337 -368.265,-88.893 -657.164,-203.182 -866.693,-342.869 -209.531,-139.686 -352.391,-304.7714 -428.583,-495.2527 -76.194,-190.4822 -114.289,-380.9633 -114.289,-571.4455 0,-609.5424 25.396,-1269.8745 76.192,-1981.0069 50.795,-711.1296 76.192,-1390.5187 76.192,-2038.1568 0,-469.8509 -73.017,-860.3382 -219.054,-1171.4588 -146.036,-311.1202 -361.915,-555.5722 -647.638,-733.3556 -285.726,-177.7824 -647.642,-304.7711 -1085.75,-380.9644 -438.106,-76.1922 -949.235,-114.2887 -1533.379,-114.2887 z"
         id="path2889" /></g><g
       inkscape:groupmode="layer"
       id="layer9"
       inkscape:label="wren - wren (#4a4139 / RGB: 74, 65, 58)"
       style="display:inline"><path
         style="clip-rule:evenodd;display:inline;fill:#4a4139;fill-rule:nonzero;stroke-width:0.96;stroke-linejoin:round;stroke-miterlimit:2"
         d="m 14600.54,7430.5435 c -189.968,2.9232 -271.8,87.6776 -274.722,277.6463 2.922,166.5878 122.747,295.1822 274.722,292.2599 149.052,-2.9232 289.336,-157.8213 283.491,-303.9505 v -2.9231 c -5.846,-151.9748 -131.516,-268.877 -283.491,-263.0326 z"
         id="path1216"
         transform="translate(0.01758,-0.003)" /><path
         style="clip-rule:evenodd;display:inline;fill:#4a4139;fill-rule:nonzero;stroke-width:0.96;stroke-linejoin:round;stroke-miterlimit:2"
         d="m 5730.4874,5332.1317 v 0.01 c -280.5687,73.0646 -540.6795,207.5034 -686.8088,479.3044 -37.9939,67.2192 -49.6839,143.2072 -40.9162,219.195 78.91,464.6889 160.741,929.3791 248.4188,1394.0719 108.1363,587.4432 336.0988,1131.0451 590.3643,1665.8793 274.7194,569.904 604.9719,1104.7357 1040.4375,1569.4267 70.1424,75.988 166.5884,137.362 242.5762,40.917 40.9162,-52.607 43.8382,-181.2 8.7675,-242.575 -111.0585,-187.045 -236.7308,-365.324 -377.0156,-534.8337 -453.0009,-546.528 -809.557,-1151.5032 -1011.2156,-1826.6212 -184.1232,-613.7472 -298.1033,-1247.9476 -438.3881,-1873.3819 -32.1485,-146.1292 122.7479,-438.3903 254.265,-470.5388 166.5878,-40.9161 330.2532,-5.8429 415.0088,151.9763 333.1766,631.2768 686.8103,1253.7895 970.3011,1908.45 347.7888,803.712 455.923,1677.5713 642.9694,2528.0453 52.6061,239.652 55.5303,482.226 -181.2,672.195 -151.9747,119.826 -263.034,292.259 -371.1694,455.925 -37.9939,58.451 -35.0716,172.431 0,236.728 23.3808,46.762 131.5158,75.989 198.735,70.144 569.904,-58.452 1139.8082,-154.898 1709.7131,-189.97 455.9271,-29.225 914.7721,-2.923 1370.6966,37.994 499.756,43.839 990.754,-2.922 1475.904,-87.677 558.215,-99.368 1066.746,-318.562 1452.528,-754.028 242.575,-274.724 417.932,-587.442 397.473,-970.3007 -2.922,-55.5293 -58.453,-111.0579 -87.679,-166.5862 -49.684,43.8383 -113.981,75.9851 -143.207,131.5143 -87.678,160.7424 -146.128,336.0976 -236.728,490.9946 -178.279,306.873 -409.165,572.829 -739.418,701.423 -490.992,189.968 -1005.369,318.562 -1540.203,309.795 -528.992,-8.768 -1055.0602,-40.917 -1584.049,-32.149 -377.0151,8.767 -754.029,58.451 -1131.0431,102.29 -257.1888,29.226 -514.377,75.989 -794.9457,119.828 134.4394,-134.439 248.4212,-239.654 353.6344,-353.634 467.616,-499.759 999.5272,-923.533 1572.3544,-1294.7025 830.016,-537.7527 1674.654,-1046.2835 2709.246,-1107.6582 248.42,-14.6131 415.008,-160.7423 526.066,-409.1625 108.137,-239.6524 260.111,-485.1507 453.002,-660.5063 432.548,-391.6272 993.682,-496.8398 1557.742,-561.1367 377.012,-40.9162 718.957,75.9862 1066.745,210.4255 359.478,137.3616 406.239,242.574 172.432,531.9112 -32.148,37.993 -58.45,81.8327 -87.677,122.7488 -286.414,423.7728 -394.55,911.8448 -528.989,1388.2275 -140.285,490.992 -230.886,993.6782 -353.636,1487.5962 -157.819,622.509 -534.832,1119.35 -1011.215,1508.055 -648.816,531.911 -1452.53,727.725 -2267.932,862.164 -491.002,78.91 -993.685,96.445 -1470.068,277.645 -137.3614,49.685 -365.3235,46.762 -470.5367,-35.07 -312.7171,-239.652 -584.5186,-531.911 -873.8549,-803.714 -169.5101,-160.742 -330.2539,-330.251 -517.2994,-470.536 -55.5293,-40.916 -210.4255,-23.379 -263.0325,26.304 -84.7555,78.91 -43.8375,187.049 46.7625,277.646 333.1795,333.175 660.5097,669.273 987.84,1011.216 613.7376,637.123 1221.644,1274.249 1829.538,1914.298 75.987,81.832 149.052,172.431 210.427,268.877 111.058,166.587 40.916,365.325 -151.975,423.776 -131.517,37.994 -277.647,37.993 -406.241,87.677 -105.213,40.917 -195.812,128.595 -292.258,192.893 105.214,32.148 213.349,96.445 318.562,90.6 914.774,-55.529 1826.622,-67.221 2715.09,213.348 49.684,14.612 154.9,-5.845 163.667,-32.148 17.536,-61.375 5.844,-128.595 -26.305,-184.123 -140.284,-236.731 -122.747,-268.877 157.821,-303.949 55.53,-8.768 102.29,-58.452 151.974,-87.679 -32.148,-43.838 -55.529,-99.368 -96.445,-131.517 -46.762,-32.148 -102.29,-52.606 -157.819,-61.373 -409.168,-75.987 -830.022,-87.678 -1242.107,-32.149 -236.73,32.147 -420.852,-29.225 -581.595,-184.123 -239.652,-227.962 -488.073,-450.08 -701.423,-701.423 -192.891,-225.04 -356.555,-470.537 -493.918,-733.57 -20.458,-37.994 -35.071,-81.833 -40.916,-125.671 -26.303,-195.815 111.061,-371.169 303.948,-397.472 111.059,-14.613 227.964,-2.922 333.177,35.072 645.898,254.261 1163.193,692.65 1660.033,1160.265 125.672,119.826 48.062,210.637 -103.912,307.083 -80.134,42.752 -417.402,39.645 -606.879,265.357 91.375,25.318 208.105,55.45 340.641,53.588 206.201,-2.899 436.655,-48.23 561.421,-39.679 507.972,-12.396 1004.071,97.537 1477.531,147.222 119.741,11.973 293.718,36.581 313.434,-8.289 13.969,-31.792 -19.688,-105.808 -95.894,-189.354 -5.845,-43.84 -106.446,-120.18 -94.757,-161.096 14.646,-53.312 131.982,-38.291 227.22,-65.606 102.802,-29.485 183.112,-100.154 173.023,-128.598 -11.786,-33.223 -80.876,-98.031 -179.88,-122.813 -129.449,-32.403 -303.04,-11.63 -395.753,-19.356 -92.293,8.001 -159.815,16.767 -272.263,27.994 -435.47,102.291 -800.331,9.535 -1113.048,-341.176 -137.362,-157.819 -321.485,-271.802 -485.151,-400.396 -134.439,-108.132 -274.723,-201.657 -409.162,-312.716 -134.44,-111.057 -102.29,-321.485 55.53,-371.169 108.135,-32.148 216.271,-61.374 327.329,-81.833 1022.909,-187.047 1788.63,-756.95 2367.303,-1592.812 499.763,-724.8 651.738,-1578.2 824.17,-2416.983 87.678,-432.5472 207.505,-856.3225 432.545,-1236.2588 201.659,-339.0211 514.375,-561.1366 879.698,-713.1112 58.453,-23.3808 93.524,-108.1376 137.363,-163.6669 -61.375,-43.8384 -113.982,-108.1345 -184.123,-128.5931 -70.143,-20.4585 -151.975,-8e-4 -227.963,-5.8462 -175.355,-14.6132 -356.556,-5.8435 -523.143,-52.6051 -344.863,-99.3686 -672.193,-263.0338 -1019.981,-333.1762 -324.405,-64.297 -675.116,-102.2908 -999.523,-49.6838 -739.419,116.9088 -1280.098,575.755 -1698.029,1174.8862 -163.665,236.7293 -371.169,365.3252 -648.815,403.3182 -724.8,99.3686 -1382.381,385.7812 -2004.8927,751.1044 -531.912,309.7925 -1025.8293,675.1185 -1478.8312,1090.1265 -204.5818,189.968 -330.2538,146.129 -388.7062,-113.982 C 7703.2314,9505.5926 7586.3277,8947.3756 7448.9661,8395.006 7183.0077,7328.2636 6627.7174,6395.9542 6022.7417,5489.9504 c -55.5285,-84.7535 -210.4211,-178.2741 -292.2543,-157.8187 z"
         id="path3102"
         transform="translate(0.01758,-0.003)" /></g><g
       inkscape:groupmode="layer"
       id="g939"
       inkscape:label="wrencode label - wren (#4a4139 / RGB: 74, 65, 58)"
       style="display:none"
       transform="translate(0,-0.001)"><text
         xml:space="preserve"
         id="text929"
         style="font-style:normal;font-weight:normal;font-size:40px;line-height:1.25;font-family:sans-serif;white-space:pre;shape-inside:url(#rect941);fill:#000000;fill-opacity:1;stroke:none" /><text
         xml:space="preserve"
         id="text933"
         style="font-style:normal;font-weight:normal;font-size:40px;line-height:1.25;font-family:sans-serif;white-space:pre;shape-inside:url(#rect943);fill:#000000;fill-opacity:1;stroke:none"><tspan
           x="6814.25"
           y="20175.421"
           id="tspan1272">WW</tspan></text><text
         xml:space="preserve"
         style="font-weight:600;font-size:2580.54px;line-height:1.25;font-family:'Source Code Pro';-inkscape-font-specification:'Source Code Pro Semi-Bold';stroke-width:0.967702"
         x="981.93988"
         y="21195.184"
         id="text937"><tspan
           sodipodi:role="line"
           id="tspan935"
           x="981.93988"
           y="21195.184"
           style="fill:#4a4139;fill-opacity:1;stroke-width:0.967702">Wrencode, LLC</tspan></text></g><g
       inkscape:groupmode="layer"
       id="g1443"
       inkscape:label="wrencode label contoured - wren (#4a4139 / RGB: 74, 65, 58)"
       style="display:inline"
       transform="translate(0,-0.001)"><text
         xml:space="preserve"
         id="text1429"
         style="font-weight:600;font-size:40px;line-height:1.25;font-family:'Source Code Pro';-inkscape-font-specification:'Source Code Pro Semi-Bold';white-space:pre;shape-inside:url(#rect1445)" /><text
         xml:space="preserve"
         id="text1431"
         style="font-weight:600;font-size:40px;line-height:1.25;font-family:'Source Code Pro';-inkscape-font-specification:'Source Code Pro Semi-Bold';white-space:pre;shape-inside:url(#rect1447)" /><text
         xml:space="preserve"
         style="font-style:normal;font-variant:normal;font-weight:bold;font-stretch:normal;font-size:533.333px;line-height:1.25;font-family:'Source Code Pro';-inkscape-font-specification:'Source Code Pro Bold';fill:#4a4139;fill-opacity:1"
         id="text1435"
         transform="translate(-85.650684,-201.13128)"><textPath
           xlink:href="#path52336"
           id="textPath1433"
           style="font-style:normal;font-variant:normal;font-weight:bold;font-stretch:normal;font-size:533.333px;font-family:'Source Code Pro';-inkscape-font-specification:'Source Code Pro Bold'"> Wrencode, LLC</textPath></text><path
         style="fill:none;stroke:#000000;stroke-width:0;stroke-linecap:butt;stroke-linejoin:miter;stroke-miterlimit:2;stroke-dasharray:none;stroke-opacity:0.184035"
         d="M 8201.721,10380.864 C 9267.3461,9542.7323 9937.8517,9135.6396 9937.8517,9135.6396 l 1101.5453,-478.9326 1137.465,-239.4663 z"
         id="path1437" /></g></g></svg>
